<svg width="92.867462" height="93.425781" viewBox="0 0 92.8675 93.4258" fill="none" xmlns="http://www.w3.org/2000/svg" xmlns:xlink="http://www.w3.org/1999/xlink">
	<desc>
			Created with Pixso.
	</desc>
	<defs/>
	<path id="Vector" d="M13.06 0C7.34 0.07 2.63 4.96 4.72 13.71L12.6 15.95C13.36 12.69 16.51 10.65 19.5 10.1L19.87 2.2C17.68 0.68 15.29 -0.03 13.06 0ZM30.18 0.35C28.19 0.33 25.92 1.05 23.5 2.74L23.15 10.17C26.02 10.81 28.52 12.82 29.67 15.66L36 13.34C38.89 6.36 35.75 0.4 30.18 0.35ZM75.16 0.55C73.27 0.53 71.35 1.52 71.98 3.6C73.15 7.53 76.61 6.87 78.03 3.53C78.85 1.6 77.04 0.57 75.14 0.55L75.16 0.55ZM53.23 1.66C50.81 1.63 48.5 3.98 50.71 8.6C44.03 8.46 46.55 17.74 51.57 15.14C48.95 23.23 59.52 24.5 58.11 16.11C64.42 20.07 67.27 13.73 60.98 10.77C69.22 8.98 62.43 -0.76 57.11 6.1C57.1 3.14 55.12 1.68 53.23 1.66L53.23 1.66ZM55.24 9.31C56.47 9.31 57.47 10.31 57.47 11.53C57.47 12.75 56.47 13.74 55.24 13.74C54.01 13.74 53.03 12.75 53.03 11.53C53.03 10.31 54.01 9.31 55.24 9.31ZM82.21 9.57C78.81 9.55 76.69 13.96 83.4 16.57C79.83 21.41 89.79 25.83 88.17 17.62C96.51 17.37 91.53 6.54 86.61 12.44C85.3 10.38 83.64 9.58 82.21 9.57ZM19.75 13.77C16.76 14.57 15.06 17.59 15.84 20.54C16.63 23.52 19.63 25.26 22.6 24.46C25.57 23.68 27.31 20.65 26.51 17.68C25.85 15.16 23.58 13.53 21.1 13.58C20.65 13.6 20.14 13.67 19.75 13.77ZM37.58 16.65L30.36 19.29C30.3 21.57 29.42 23.7 27.94 25.34L33.46 30.96C42 31.65 45.65 21.34 37.58 16.65ZM2.69 16.92C-4.38 22.64 3.85 37.41 11.33 34.89L15.92 26.65C13.2 24.6 12.13 22.45 12.03 19.58L2.69 16.92ZM74.42 20.98C71.49 21.02 68.21 22.9 65.34 27.23L67.56 36.86C67.86 36.84 68.15 36.86 68.44 36.88C70.88 37.06 73.23 38.11 74.97 39.93L82.66 34.52C83.72 26.73 79.77 21.1 74.69 20.98L74.42 20.98ZM89.87 26.47C85.77 26.59 85.51 30.11 88.36 32.35C91.69 34.93 94.2 26.36 89.87 26.47ZM57.58 27.16C49.75 27.23 43.07 33.46 49.11 44.42L58.11 44.44C58.76 40.79 61.08 38.84 63.99 37.59L61.69 27.68C60.34 27.31 58.93 27.14 57.58 27.16ZM24.97 27.51C23.19 28.31 20.96 28.46 19.26 28.11L14.94 35.91C21.84 44.19 28.01 39.56 30.14 32.78L24.97 27.51ZM83.17 38.64L76.96 43C77.9 45.32 77.92 47.84 77.11 50.09L84.15 54.25C94.22 52.8 94.99 40.28 83.17 38.64ZM67.76 40.5C66.69 40.5 65.61 40.77 64.61 41.34C61.59 43.09 60.57 46.9 62.31 49.93C64.07 52.96 67.88 53.99 70.9 52.23C73.93 50.5 74.97 46.67 73.21 43.64C72.11 41.75 70.22 40.63 68.21 40.5L67.76 40.5ZM11.99 42.72C5.21 42.82 0.7 48.95 5.49 58.66L15.88 61.92C17.37 59.19 20.03 57.2 23.19 56.59L22.6 47.06C19.07 44.03 15.27 42.66 11.99 42.72ZM34.24 43.27C31.69 43.31 28.83 44.62 26.29 47.64L26.84 56.51C29.44 56.92 31.74 58.29 33.36 60.24L41.02 55.91C43.97 48.93 39.75 43.17 34.24 43.27ZM48.5 48.05C42.49 59.07 53.36 66.86 61.82 63.82L64.03 55.98C62.06 55.18 60.3 53.74 59.17 51.77C58.48 50.59 58.09 49.36 57.92 48.09L48.5 48.05ZM75.3 53.25C74.6 54.09 73.74 54.81 72.74 55.4C71.12 56.32 69.36 56.75 67.62 56.73L65.28 65.05C71.84 72.47 82.97 65.28 82.17 57.31L75.3 53.25ZM41.94 59.6L35.18 63.41C36.29 66.49 35.75 70.12 34.19 72.66L40.08 78.86C53.29 73.37 49.56 64.23 41.94 59.6ZM25.2 60.03C21.31 60.03 18.21 63.15 18.21 67.02C18.21 70.91 21.31 74.01 25.2 74.01C29.07 74.01 32.17 70.91 32.17 67.02C32.17 63.15 29.07 60.03 25.2 60.03ZM4.33 62.12C-2.83 69.6 -0.16 84.62 12.93 83.5L17.97 74.81C15.12 72.21 14.11 68.8 14.7 65.38L4.33 62.12ZM87.53 66.41C84.5 66.43 79.42 70.93 84.83 72.08C84.19 79.5 94.42 73.15 89.32 69.34C89.71 67.18 88.79 66.39 87.53 66.41ZM64.24 71.18C62.68 71.18 61.06 72.57 60.45 76.14C55.79 70.14 49.09 77.04 56.45 81.37C47.15 86.14 56.96 92.51 60.73 86.75C61.57 96.41 72.6 90.3 66.41 84.64C74.26 85.93 74.24 78.35 66.61 78.58C69.26 74.93 66.84 71.16 64.24 71.18ZM31.74 75.38C28.21 77.68 24.71 78.35 21.04 76.8L15.39 86.53C19.61 96.57 39.11 91.82 38.89 82.51L38.72 82.68L31.74 75.38ZM62.29 79.44C63.52 79.44 64.5 80.44 64.5 81.65C64.5 82.88 63.52 83.87 62.29 83.87C61.06 83.87 60.08 82.88 60.08 81.65C60.08 80.44 61.06 79.44 62.29 79.44ZM83.4 80.81C81.02 80.73 80.24 84.73 84.65 87.23C80.45 92.86 90.4 97.14 89.3 88.56C96.47 89.93 91.18 81.51 87.64 84.52C86.12 81.88 84.58 80.85 83.4 80.81Z" fill="#F46D93" fill-opacity="1.000000" fill-rule="evenodd"/>
</svg>
