<svg width="16.000000" height="16.000000" viewBox="0 0 16 16" fill="none" xmlns="http://www.w3.org/2000/svg" xmlns:xlink="http://www.w3.org/1999/xlink">
	<desc>
			Created with Pixso.
	</desc>
	<defs>
		<clipPath id="clip58_3193">
			<rect id="Icon" rx="0.000000" width="15.000000" height="15.000000" transform="translate(0.500000 0.500000)" fill="white" fill-opacity="0"/>
		</clipPath>
	</defs>
	<rect id="Icon" rx="0.000000" width="15.000000" height="15.000000" transform="translate(0.500000 0.500000)" fill="#FFFFFF" fill-opacity="0"/>
	<g clip-path="url(#clip58_3193)">
		<path id="Vector" d="M11.33 9.33C11.51 9.33 11.67 9.26 11.8 9.13C11.92 9.01 12 8.84 12 8.66C12 8.48 11.92 8.32 11.8 8.19C11.67 8.07 11.51 8 11.33 8C11.15 8 10.98 8.07 10.86 8.19C10.73 8.32 10.66 8.48 10.66 8.66C10.66 8.84 10.73 9.01 10.86 9.13C10.98 9.26 11.15 9.33 11.33 9.33ZM11.33 12C11.51 12 11.67 11.92 11.8 11.8C11.92 11.67 12 11.51 12 11.33C12 11.15 11.92 10.98 11.8 10.86C11.67 10.73 11.51 10.66 11.33 10.66C11.15 10.66 10.98 10.73 10.86 10.86C10.73 10.98 10.66 11.15 10.66 11.33C10.66 11.51 10.73 11.67 10.86 11.8C10.98 11.92 11.15 12 11.33 12ZM8.66 8.66C8.66 8.84 8.59 9.01 8.47 9.13C8.34 9.26 8.17 9.33 8 9.33C7.82 9.33 7.65 9.26 7.52 9.13C7.4 9.01 7.33 8.84 7.33 8.66C7.33 8.48 7.4 8.32 7.52 8.19C7.65 8.07 7.82 8 8 8C8.17 8 8.34 8.07 8.47 8.19C8.59 8.32 8.66 8.48 8.66 8.66ZM8.66 11.33C8.66 11.51 8.59 11.67 8.47 11.8C8.34 11.92 8.17 12 8 12C7.82 12 7.65 11.92 7.52 11.8C7.4 11.67 7.33 11.51 7.33 11.33C7.33 11.15 7.4 10.98 7.52 10.86C7.65 10.73 7.82 10.66 8 10.66C8.17 10.66 8.34 10.73 8.47 10.86C8.59 10.98 8.66 11.15 8.66 11.33ZM4.66 9.33C4.84 9.33 5.01 9.26 5.13 9.13C5.26 9.01 5.33 8.84 5.33 8.66C5.33 8.48 5.26 8.32 5.13 8.19C5.01 8.07 4.84 8 4.66 8C4.48 8 4.32 8.07 4.19 8.19C4.07 8.32 4 8.48 4 8.66C4 8.84 4.07 9.01 4.19 9.13C4.32 9.26 4.48 9.33 4.66 9.33ZM4.66 12C4.84 12 5.01 11.92 5.13 11.8C5.26 11.67 5.33 11.51 5.33 11.33C5.33 11.15 5.26 10.98 5.13 10.86C5.01 10.73 4.84 10.66 4.66 10.66C4.48 10.66 4.32 10.73 4.19 10.86C4.07 10.98 4 11.15 4 11.33C4 11.51 4.07 11.67 4.19 11.8C4.32 11.92 4.48 12 4.66 12Z" fill="#2C2E31" fill-opacity="1.000000" fill-rule="nonzero"/>
		<path id="Vector" d="M4.66 1.16C4.79 1.16 4.92 1.21 5.02 1.31C5.11 1.4 5.16 1.53 5.16 1.66L5.16 2.17C5.6 2.16 6.09 2.16 6.62 2.16L9.37 2.16C9.9 2.16 10.39 2.16 10.83 2.17L10.83 1.66C10.83 1.53 10.88 1.4 10.98 1.31C11.07 1.21 11.2 1.16 11.33 1.16C11.46 1.16 11.59 1.21 11.68 1.31C11.78 1.4 11.83 1.53 11.83 1.66L11.83 2.21C12 2.23 12.17 2.24 12.32 2.26C13.1 2.37 13.73 2.59 14.23 3.09C14.73 3.59 14.95 4.22 15.06 5C15.16 5.76 15.16 6.73 15.16 7.96L15.16 9.37C15.16 10.59 15.16 11.56 15.06 12.32C14.95 13.1 14.73 13.74 14.23 14.23C13.73 14.73 13.1 14.95 12.32 15.06C11.56 15.16 10.59 15.16 9.37 15.16L6.62 15.16C5.4 15.16 4.43 15.16 3.67 15.06C2.89 14.95 2.26 14.73 1.76 14.23C1.26 13.74 1.04 13.1 0.93 12.32C0.83 11.56 0.83 10.59 0.83 9.37L0.83 7.96C0.83 6.73 0.83 5.76 0.93 5C1.04 4.22 1.26 3.59 1.76 3.09C2.26 2.59 2.89 2.37 3.67 2.26C3.83 2.24 3.99 2.23 4.16 2.21L4.16 1.66C4.16 1.53 4.21 1.4 4.31 1.31C4.4 1.21 4.53 1.16 4.66 1.16ZM3.8 3.26C3.13 3.35 2.75 3.51 2.46 3.8C2.18 4.08 2.01 4.47 1.92 5.14C1.91 5.25 1.89 5.37 1.88 5.49L14.11 5.49C14.1 5.37 14.08 5.25 14.07 5.13C13.98 4.46 13.81 4.08 13.53 3.8C13.25 3.51 12.86 3.34 12.19 3.25C11.5 3.16 10.6 3.16 9.33 3.16L6.66 3.16C5.39 3.16 4.49 3.16 3.8 3.26ZM1.83 8C1.83 7.43 1.83 6.93 1.84 6.5L14.15 6.5C14.16 6.93 14.16 7.43 14.16 8L14.16 9.33C14.16 10.6 14.16 11.5 14.07 12.19C13.98 12.86 13.81 13.25 13.53 13.53C13.25 13.81 12.86 13.98 12.19 14.07C11.5 14.16 10.6 14.16 9.33 14.16L6.66 14.16C5.39 14.16 4.49 14.16 3.8 14.07C3.13 13.98 2.75 13.81 2.46 13.53C2.18 13.25 2.01 12.86 1.92 12.19C1.83 11.5 1.83 10.6 1.83 9.33L1.83 8Z" fill="#2C2E31" fill-opacity="1.000000" fill-rule="evenodd"/>
	</g>
</svg>
