<svg width="27.068237" height="28.125000" viewBox="0 0 27.0682 28.125" fill="none" xmlns="http://www.w3.org/2000/svg" xmlns:xlink="http://www.w3.org/1999/xlink">
	<desc>
			Created with Pixso.
	</desc>
	<defs/>
	<path id="Vector" d="M8.16 1.5C8.58 0.61 9.48 0 10.53 0L16.53 0C17.58 0 18.48 0.61 18.9 1.5C19.93 1.5 20.73 1.55 21.44 1.83C22.29 2.16 23.03 2.73 23.58 3.46C24.13 4.21 24.39 5.16 24.74 6.46L25.86 10.54L26.28 11.81L26.31 11.85C27.66 13.58 27.02 16.16 25.73 21.3C24.91 24.58 24.51 26.21 23.29 27.17C22.06 28.12 20.38 28.12 17 28.12L10.06 28.12C6.68 28.12 4.99 28.12 3.77 27.17C2.55 26.21 2.14 24.58 1.33 21.3C0.04 16.16 -0.61 13.58 0.75 11.85L0.78 11.81L1.2 10.54L2.32 6.46C2.67 5.16 2.93 4.2 3.48 3.46C4.02 2.73 4.77 2.16 5.62 1.83C6.33 1.55 7.13 1.5 8.16 1.5ZM8.16 3.75C7.17 3.76 6.77 3.8 6.44 3.93C5.98 4.11 5.58 4.41 5.29 4.81C5.02 5.16 4.87 5.66 4.43 7.26L3.58 10.39C5.11 10.12 7.2 10.12 10.06 10.12L17 10.12C19.86 10.12 21.95 10.12 23.48 10.39L22.63 7.26C22.19 5.66 22.04 5.16 21.77 4.8C21.48 4.41 21.08 4.1 20.62 3.92C20.29 3.79 19.89 3.76 18.9 3.75C18.69 4.19 18.35 4.57 17.93 4.84C17.51 5.1 17.03 5.24 16.53 5.25L10.53 5.25C10.03 5.24 9.55 5.1 9.13 4.84C8.71 4.57 8.37 4.2 8.16 3.75Z" fill="#79BC5E" fill-opacity="1.000000" fill-rule="evenodd"/>
</svg>
