<svg width="12.030273" height="12.500000" viewBox="0 0 12.0303 12.5" fill="none" xmlns="http://www.w3.org/2000/svg" xmlns:xlink="http://www.w3.org/1999/xlink">
	<desc>
			Created with Pixso.
	</desc>
	<defs/>
	<path id="Vector" d="M3.62 0.66C3.81 0.27 4.21 0 4.68 0L7.34 0C7.81 0 8.21 0.27 8.4 0.66C8.85 0.67 9.21 0.69 9.53 0.81C9.9 0.96 10.23 1.21 10.48 1.54C10.72 1.87 10.84 2.29 10.99 2.87L11.49 4.68L11.68 5.24L11.69 5.26C12.29 6.03 12.01 7.18 11.43 9.47C11.07 10.92 10.89 11.65 10.35 12.07C9.8 12.5 9.05 12.5 7.55 12.5L4.47 12.5C2.97 12.5 2.22 12.5 1.67 12.07C1.13 11.65 0.95 10.92 0.59 9.47C0.01 7.18 -0.27 6.03 0.33 5.26L0.34 5.24L0.53 4.68L1.03 2.87C1.18 2.29 1.3 1.87 1.54 1.54C1.79 1.21 2.12 0.96 2.49 0.81C2.81 0.69 3.17 0.66 3.62 0.66ZM3.62 1.66C3.18 1.67 3 1.68 2.86 1.74C2.65 1.82 2.48 1.96 2.35 2.13C2.23 2.29 2.16 2.51 1.97 3.22L1.59 4.62C2.27 4.5 3.2 4.5 4.47 4.5L7.55 4.5C8.82 4.5 9.75 4.5 10.43 4.62L10.05 3.22C9.86 2.51 9.79 2.29 9.67 2.13C9.54 1.96 9.37 1.82 9.16 1.74C9.02 1.68 8.84 1.67 8.4 1.66C8.3 1.86 8.15 2.03 7.97 2.15C7.78 2.27 7.56 2.33 7.34 2.33L4.68 2.33C4.46 2.33 4.24 2.27 4.05 2.15C3.87 2.03 3.72 1.86 3.62 1.66Z" fill="#FEFEFE" fill-opacity="1.000000" fill-rule="evenodd"/>
</svg>
