<svg width="44.000000" height="44.000000" viewBox="0 0 44 44" fill="none" xmlns="http://www.w3.org/2000/svg" xmlns:xlink="http://www.w3.org/1999/xlink">
	<desc>
			Created with Pixso.
	</desc>
	<defs>
		<clipPath id="clip8_6233">
			<rect id="Icon / Cart" rx="0.000000" width="23.000000" height="23.000000" transform="translate(10.500000 10.500000)" fill="white" fill-opacity="0"/>
		</clipPath>
	</defs>
	<rect id="Icon / Cart" rx="0.000000" width="23.000000" height="23.000000" transform="translate(10.500000 10.500000)" fill="#FFFFFF" fill-opacity="0"/>
	<g clip-path="url(#clip8_6233)">
		<path id="Vector" d="M18.41 13.25C18.69 12.66 19.3 12.25 19.99 12.25L23.99 12.25C24.69 12.25 25.3 12.66 25.58 13.25C26.26 13.25 26.79 13.28 27.27 13.47C27.84 13.69 28.33 14.07 28.69 14.56C29.06 15.05 29.23 15.68 29.47 16.56L30.21 19.28L30.49 20.12L30.52 20.15C31.42 21.3 30.99 23.02 30.13 26.45C29.58 28.63 29.31 29.72 28.5 30.36C27.68 31 26.56 31 24.31 31L19.68 31C17.43 31 16.3 31 15.49 30.36C14.68 29.72 14.4 28.63 13.86 26.45C13 23.02 12.57 21.3 13.47 20.15L13.5 20.12L13.78 19.28L14.52 16.56C14.76 15.68 14.93 15.05 15.29 14.56C15.66 14.07 16.15 13.69 16.72 13.47C17.2 13.28 17.73 13.25 18.41 13.25ZM18.41 14.75C17.75 14.76 17.49 14.78 17.27 14.87C16.96 14.99 16.69 15.19 16.5 15.45C16.32 15.69 16.22 16.02 15.93 17.09L15.36 19.18C16.38 19 17.77 19 19.68 19L24.31 19C26.22 19 27.61 19 28.63 19.18L28.06 17.09C27.77 16.02 27.67 15.69 27.49 15.45C27.29 15.19 27.03 14.98 26.72 14.86C26.5 14.78 26.24 14.75 25.57 14.75C25.43 15.04 25.21 15.3 24.93 15.47C24.65 15.65 24.33 15.74 23.99 15.75L19.99 15.75C19.66 15.75 19.34 15.65 19.06 15.47C18.78 15.3 18.56 15.05 18.41 14.75Z" fill="#79BC5E" fill-opacity="1.000000" fill-rule="evenodd"/>
	</g>
	<rect id="IconButton" rx="9.500000" width="43.000000" height="43.000000" transform="translate(0.500000 0.500000)" stroke="#79BC5E" stroke-opacity="1.000000" stroke-width="1.000000"/>
</svg>
