<svg width="52.000000" height="52.000000" viewBox="0 0 52 52" fill="none" xmlns="http://www.w3.org/2000/svg" xmlns:xlink="http://www.w3.org/1999/xlink">
	<desc>
			Created with Pixso.
	</desc>
	<defs>
		<filter id="filter_2_1012_dd" x="0.000000" y="0.000000" width="52.000000" height="52.000000" filterUnits="userSpaceOnUse" color-interpolation-filters="sRGB">
			<feFlood flood-opacity="0" result="BackgroundImageFix"/>
			<feBlend mode="normal" in="SourceGraphic" in2="BackgroundImageFix" result="shape"/>
			<feGaussianBlur stdDeviation="3.33333" result="effect_layerBlur_1"/>
		</filter>
	</defs>
	<g opacity="0.300000" filter="url(#filter_2_1012_dd)">
		<circle id="Bg" cx="26.000000" cy="26.000000" r="16.000000" fill="#F46D93" fill-opacity="1.000000"/>
	</g>
	<circle id="Bg" cx="26.000000" cy="26.000000" r="15.000000" fill="#FEFEFE" fill-opacity="1.000000"/>
	<rect id="Icon / Chat" rx="0.000000" width="15.000000" height="15.000000" transform="translate(18.500000 18.500000)" fill="#FFFFFF" fill-opacity="0"/>
	<path id="Vector" d="M19.33 32.66L19.33 20.66C19.33 20.29 19.46 19.98 19.72 19.72C19.98 19.46 20.29 19.33 20.66 19.33L31.33 19.33C31.69 19.33 32.01 19.46 32.27 19.72C32.53 19.98 32.66 20.29 32.66 20.66L32.66 28.66C32.66 29.03 32.53 29.34 32.27 29.6C32.01 29.86 31.69 30 31.33 29.99L21.99 29.99L19.33 32.66ZM21.99 27.33L27.33 27.33L27.33 25.99L21.99 25.99L21.99 27.33ZM21.99 25.33L29.99 25.33L29.99 23.99L21.99 23.99L21.99 25.33ZM21.99 23.33L29.99 23.33L29.99 21.99L21.99 21.99L21.99 23.33Z" fill="#F46D93" fill-opacity="1.000000" fill-rule="evenodd"/>
</svg>
