<svg width="13.333008" height="13.333984" viewBox="0 0 13.333 13.334" fill="none" xmlns="http://www.w3.org/2000/svg" xmlns:xlink="http://www.w3.org/1999/xlink">
	<desc>
			Created with Pixso.
	</desc>
	<defs/>
	<path id="Vector" d="M5.06 0.8C4.95 0.89 4.84 0.98 4.73 1.06C4.53 1.19 4.3 1.29 4.07 1.33C3.97 1.35 3.86 1.36 3.65 1.38C3.11 1.42 2.85 1.44 2.62 1.52C2.37 1.61 2.14 1.76 1.95 1.95C1.76 2.14 1.61 2.37 1.52 2.62C1.44 2.85 1.42 3.11 1.38 3.65C1.37 3.79 1.36 3.93 1.33 4.07C1.29 4.3 1.19 4.53 1.06 4.73C1 4.81 0.93 4.89 0.79 5.06C0.45 5.46 0.27 5.67 0.17 5.88C-0.06 6.38 -0.06 6.95 0.17 7.44C0.27 7.66 0.45 7.86 0.79 8.27C0.93 8.43 1 8.51 1.06 8.6C1.19 8.8 1.29 9.02 1.33 9.25C1.35 9.36 1.36 9.46 1.38 9.68C1.42 10.21 1.44 10.48 1.52 10.7C1.61 10.95 1.76 11.19 1.95 11.38C2.14 11.57 2.37 11.71 2.62 11.8C2.85 11.88 3.11 11.9 3.65 11.95C3.86 11.96 3.97 11.97 4.07 11.99C4.3 12.04 4.53 12.13 4.73 12.26C4.81 12.32 4.89 12.39 5.06 12.53C5.46 12.88 5.67 13.05 5.88 13.15C6.37 13.39 6.95 13.39 7.44 13.15C7.65 13.05 7.86 12.88 8.27 12.53C8.43 12.39 8.51 12.32 8.6 12.26C8.8 12.13 9.02 12.04 9.25 11.99C9.36 11.97 9.46 11.96 9.67 11.95C10.21 11.9 10.48 11.88 10.7 11.8C10.95 11.71 11.18 11.57 11.38 11.38C11.57 11.19 11.71 10.95 11.8 10.7C11.88 10.48 11.9 10.21 11.95 9.68C11.96 9.46 11.97 9.36 11.99 9.25C12.04 9.02 12.13 8.8 12.26 8.6C12.32 8.51 12.39 8.43 12.53 8.27C12.88 7.86 13.05 7.66 13.15 7.44C13.39 6.95 13.39 6.38 13.15 5.88C13.05 5.67 12.88 5.46 12.53 5.06C12.43 4.95 12.34 4.84 12.26 4.73C12.13 4.53 12.04 4.31 11.99 4.07C11.97 3.93 11.95 3.79 11.95 3.65C11.9 3.11 11.88 2.85 11.8 2.62C11.71 2.37 11.57 2.14 11.38 1.95C11.18 1.76 10.95 1.61 10.7 1.52C10.48 1.44 10.21 1.42 9.67 1.38C9.53 1.37 9.39 1.36 9.25 1.33C9.02 1.29 8.8 1.19 8.6 1.06C8.48 0.98 8.37 0.89 8.27 0.8C7.86 0.45 7.65 0.27 7.44 0.17C7.2 0.06 6.93 0 6.66 0C6.39 0 6.13 0.06 5.88 0.17C5.67 0.27 5.46 0.45 5.06 0.8ZM9.22 4.11C9.32 4.21 9.37 4.35 9.37 4.49C9.37 4.64 9.32 4.77 9.22 4.88L4.87 9.22C4.83 9.27 4.77 9.31 4.7 9.34C4.63 9.37 4.56 9.39 4.49 9.39C4.41 9.39 4.34 9.38 4.27 9.35C4.2 9.33 4.14 9.29 4.09 9.23C4.04 9.18 4 9.12 3.97 9.05C3.94 8.98 3.93 8.91 3.93 8.84C3.93 8.77 3.95 8.69 3.98 8.63C4.01 8.56 4.05 8.5 4.11 8.45L8.45 4.11C8.55 4.01 8.69 3.95 8.83 3.95C8.98 3.95 9.11 4.01 9.21 4.11L9.22 4.11ZM9.19 8.47C9.19 8.66 9.12 8.85 8.98 8.98C8.85 9.12 8.66 9.19 8.47 9.19C8.28 9.19 8.09 9.12 7.96 8.98C7.82 8.85 7.75 8.66 7.75 8.47C7.75 8.28 7.82 8.1 7.96 7.96C8.09 7.82 8.28 7.75 8.47 7.75C8.66 7.75 8.85 7.82 8.98 7.96C9.12 8.1 9.19 8.28 9.19 8.47ZM4.85 5.58C5.04 5.58 5.23 5.5 5.36 5.37C5.5 5.23 5.58 5.05 5.58 4.85C5.58 4.66 5.5 4.48 5.36 4.34C5.23 4.21 5.04 4.13 4.85 4.13C4.66 4.13 4.48 4.21 4.34 4.34C4.21 4.48 4.13 4.66 4.13 4.85C4.13 5.05 4.21 5.23 4.34 5.37C4.48 5.5 4.66 5.58 4.85 5.58Z" fill="#F46D93" fill-opacity="1.000000" fill-rule="evenodd"/>
</svg>
