<svg width="11.500000" height="11.336426" viewBox="0 0 11.5 11.3364" fill="none" xmlns="http://www.w3.org/2000/svg" xmlns:xlink="http://www.w3.org/1999/xlink">
	<desc>
			Created with Pixso.
	</desc>
	<defs/>
	<path id="Vector" d="M10.41 0.5C10.57 0.5 10.71 0.56 10.82 0.67C10.93 0.78 11 0.92 11 1.08L11 2C11 2.16 10.93 2.31 10.82 2.42L7.08 6.16C6.97 6.27 6.91 6.41 6.91 6.57L6.91 10.25C6.91 10.34 6.89 10.42 6.85 10.5C6.81 10.58 6.76 10.65 6.69 10.71C6.62 10.76 6.54 10.8 6.45 10.82C6.36 10.84 6.27 10.84 6.19 10.81L5.02 10.52C4.89 10.49 4.78 10.42 4.7 10.31C4.62 10.21 4.58 10.09 4.58 9.96L4.58 6.57C4.58 6.41 4.52 6.27 4.41 6.16L0.67 2.42C0.56 2.31 0.5 2.16 0.5 2L0.5 1.08C0.5 0.92 0.56 0.78 0.67 0.67C0.78 0.56 0.92 0.5 1.08 0.5L10.41 0.5Z" stroke="#2C2E31" stroke-opacity="1.000000" stroke-width="1.000000" stroke-linejoin="round"/>
</svg>
