<svg width="12.000000" height="16.000000" viewBox="0 0 12 16" fill="none" xmlns="http://www.w3.org/2000/svg" xmlns:xlink="http://www.w3.org/1999/xlink">
	<desc>
			Created with Pixso.
	</desc>
	<defs/>
	<path id="Vector" d="M6 16C6 16 12 10.31 12 6C12 4.4 11.36 2.88 10.24 1.75C9.11 0.63 7.59 0 6 0C4.4 0 2.88 0.63 1.75 1.75C0.63 2.88 0 4.4 0 6C0 10.31 6 16 6 16ZM6 9C5.2 9 4.44 8.68 3.87 8.12C3.31 7.55 3 6.79 3 6C3 5.2 3.31 4.44 3.87 3.87C4.44 3.31 5.2 3 6 3C6.79 3 7.55 3.31 8.12 3.87C8.68 4.44 9 5.2 9 6C9 6.79 8.68 7.55 8.12 8.12C7.55 8.68 6.79 9 6 9Z" fill="#2C2E31" fill-opacity="1.000000" fill-rule="nonzero"/>
</svg>
