<svg width="24.000000" height="24.000000" viewBox="0 0 24 24" fill="none" xmlns="http://www.w3.org/2000/svg" xmlns:xlink="http://www.w3.org/1999/xlink">
	<desc>
			Created with Pixso.
	</desc>
	<defs>
		<clipPath id="clip8_6239">
			<rect id="Icon / Heart" rx="0.000000" width="23.000000" height="23.000000" transform="translate(0.500000 0.500000)" fill="white" fill-opacity="0"/>
		</clipPath>
	</defs>
	<rect id="Icon / Heart" rx="0.000000" width="23.000000" height="23.000000" transform="translate(0.500000 0.500000)" fill="#FFFFFF" fill-opacity="0"/>
	<g clip-path="url(#clip8_6239)">
		<path id="Vector" d="M12.1 18.54L12 18.65L11.89 18.54C7.14 14.24 4 11.39 4 8.5C4 6.5 5.5 5 7.5 5C9.04 5 10.54 6 11.07 7.35L12.93 7.35C13.46 6 14.96 5 16.5 5C18.5 5 20 6.5 20 8.5C20 11.39 16.86 14.24 12.1 18.54ZM16.5 3C14.76 3 13.09 3.81 12 5.07C10.91 3.81 9.24 3 7.5 3C4.42 3 2 5.41 2 8.5C2 12.27 5.4 15.36 10.55 20.03L12 21.35L13.45 20.03C18.6 15.36 22 12.27 22 8.5C22 5.41 19.58 3 16.5 3Z" fill="#FEFEFE" fill-opacity="1.000000" fill-rule="nonzero"/>
	</g>
</svg>
