<svg width="12.000000" height="12.000000" viewBox="0 0 12 12" fill="none" xmlns="http://www.w3.org/2000/svg" xmlns:xlink="http://www.w3.org/1999/xlink">
	<desc>
			Created with Pixso.
	</desc>
	<defs/>
	<path id="Vector" d="M8 12L4 10.6L0.89 11.79C0.67 11.88 0.47 11.86 0.28 11.72C0.09 11.58 0 11.4 0 11.16L0 1.83C0 1.68 0.04 1.56 0.12 1.45C0.2 1.33 0.32 1.25 0.46 1.2L4 0L8 1.39L11.1 0.2C11.32 0.11 11.52 0.13 11.71 0.27C11.9 0.41 12 0.6 12 0.83L12 10.16C12 10.31 11.95 10.43 11.87 10.54C11.79 10.66 11.67 10.74 11.53 10.79L8 12ZM7.33 10.36L7.33 2.56L4.66 1.63L4.66 9.43L7.33 10.36ZM8.66 10.36L10.66 9.7L10.66 1.79L8.66 2.56L8.66 10.36ZM1.33 10.2L3.33 9.43L3.33 1.63L1.33 2.29L1.33 10.2Z" fill="#F46D93" fill-opacity="1.000000" fill-rule="evenodd"/>
</svg>
