<svg width="9.145752" height="8.904297" viewBox="0 0 9.14575 8.9043" fill="none" xmlns="http://www.w3.org/2000/svg" xmlns:xlink="http://www.w3.org/1999/xlink">
	<desc>
			Created with Pixso.
	</desc>
	<defs/>
	<path id="Vector" d="M9.13 4.24C9.1 3.97 8.98 3.74 8.78 3.58L8.78 3.58C8.69 3.51 8.59 3.46 8.48 3.43L8.47 3.42C7.95 3.28 7.31 3.56 6.85 4.13C6.52 4.54 6.36 5.03 6.4 5.45C6.44 5.73 6.56 5.96 6.75 6.11L6.76 6.12C6.85 6.18 6.95 6.24 7.06 6.27C7.57 6.42 8.23 6.14 8.69 5.57C9.01 5.16 9.18 4.66 9.13 4.24ZM6.29 6.4C6.05 6.14 5.82 5.89 5.72 5.54C5.46 4.56 5.31 3.97 4.51 3.74C3.72 3.5 3.27 3.92 2.52 4.6C2.25 4.85 1.92 4.94 1.58 5.03C1.18 5.14 0.77 5.24 0.5 5.61C0.39 5.75 0.32 5.9 0.27 6.06C0.08 6.73 0.44 7.43 1.09 7.62C1.42 7.72 1.81 7.71 2.22 7.69C2.61 7.68 3.02 7.67 3.34 7.76C3.66 7.86 4 8.09 4.32 8.31C4.66 8.54 4.98 8.76 5.32 8.85C5.96 9.04 6.64 8.64 6.84 7.97C6.89 7.81 6.9 7.64 6.89 7.48C6.86 7.02 6.57 6.7 6.29 6.4ZM2.72 2.5C2.86 2.84 3.1 3.08 3.39 3.16C3.43 3.18 3.47 3.18 3.51 3.19C4.14 3.28 4.74 2.65 4.86 1.75C4.91 1.38 4.87 1 4.75 0.69C4.61 0.35 4.37 0.11 4.08 0.03C4.04 0.02 4 0.01 3.95 0C3.32 -0.08 2.73 0.55 2.6 1.44C2.55 1.82 2.59 2.19 2.72 2.5ZM5.65 3.81C5.69 3.83 5.73 3.85 5.77 3.86C6.06 3.94 6.39 3.87 6.69 3.66C6.96 3.46 7.2 3.17 7.36 2.82C7.73 2 7.57 1.15 6.99 0.89C6.95 0.87 6.91 0.85 6.87 0.84C6.58 0.76 6.25 0.83 5.95 1.04C5.68 1.24 5.44 1.53 5.28 1.88C4.91 2.7 5.07 3.55 5.65 3.81ZM1.34 4.54L1.34 4.54C1.59 4.51 1.82 4.39 1.99 4.17C2.26 3.84 2.38 3.33 2.33 2.81C2.25 2.08 1.85 1.5 1.33 1.35C1.22 1.31 1.11 1.3 0.99 1.31L0.99 1.31C0.74 1.34 0.52 1.46 0.34 1.68C0.08 2.01 -0.05 2.52 0.01 3.04C0.09 3.77 0.49 4.35 1.01 4.5C1.11 4.54 1.23 4.55 1.34 4.54Z" fill="#F46D93" fill-opacity="1.000000" fill-rule="nonzero"/>
</svg>
