<svg width="26.000000" height="26.000000" viewBox="0 0 26 26" fill="none" xmlns="http://www.w3.org/2000/svg" xmlns:xlink="http://www.w3.org/1999/xlink">
	<desc>
			Created with Pixso.
	</desc>
	<defs/>
	<rect id="Icon / Phone" rx="0.000000" width="25.000000" height="25.000000" transform="translate(0.500000 0.500000)" fill="#FFFFFF" fill-opacity="0"/>
	<rect id="Icon / Phone" rx="0.000000" width="25.000000" height="25.000000" transform="translate(0.500000 0.500000)" fill="#FFFFFF" fill-opacity="0"/>
	<path id="Vector" d="M20.83 16.53L18.08 16.21C17.75 16.17 17.42 16.21 17.12 16.32C16.81 16.42 16.53 16.6 16.3 16.83L14.31 18.82C11.23 17.26 8.73 14.76 7.17 11.68L9.17 9.68C9.64 9.21 9.86 8.56 9.79 7.9L9.47 5.17C9.41 4.64 9.16 4.16 8.76 3.8C8.36 3.45 7.85 3.25 7.32 3.26L5.44 3.26C4.22 3.26 3.2 4.27 3.28 5.5C3.85 14.75 11.25 22.14 20.49 22.71C21.72 22.79 22.73 21.77 22.73 20.55L22.73 18.67C22.75 17.58 21.92 16.66 20.83 16.53Z" fill="#FEFEFE" fill-opacity="1.000000" fill-rule="evenodd"/>
</svg>
