<svg width="21.968750" height="21.968750" viewBox="0 0 21.9688 21.9688" fill="none" xmlns="http://www.w3.org/2000/svg" xmlns:xlink="http://www.w3.org/1999/xlink">
	<desc>
			Created with Pixso.
	</desc>
	<defs/>
	<path id="Vector" d="M8.12 16.25C5.85 16.25 3.93 15.46 2.35 13.89C0.78 12.31 0 10.39 0 8.12C-0.01 5.85 0.78 3.93 2.35 2.35C3.93 0.78 5.85 0 8.12 0C10.39 0 12.31 0.78 13.89 2.35C15.46 3.93 16.25 5.85 16.25 8.12C16.25 9.04 16.1 9.9 15.81 10.71C15.52 11.53 15.12 12.25 14.62 12.87L21.62 19.87C21.85 20.1 21.96 20.39 21.96 20.75C21.96 21.1 21.85 21.39 21.62 21.62C21.39 21.85 21.1 21.96 20.75 21.96C20.39 21.96 20.1 21.85 19.87 21.62L12.87 14.62C12.25 15.12 11.53 15.52 10.71 15.81C9.9 16.1 9.04 16.25 8.12 16.25ZM8.12 13.75C9.68 13.75 11.01 13.2 12.11 12.1C13.2 11.01 13.75 9.68 13.75 8.12C13.74 6.56 13.2 5.23 12.11 4.14C11.01 3.04 9.68 2.5 8.12 2.5C6.56 2.49 5.23 3.04 4.14 4.14C3.04 5.23 2.5 6.56 2.5 8.12C2.49 9.68 3.04 11.01 4.14 12.1C5.23 13.2 6.56 13.75 8.12 13.75Z" fill="#FEFEFE" fill-opacity="1.000000" fill-rule="nonzero"/>
</svg>
