<svg width="55.015625" height="54.995605" viewBox="0 0 55.0156 54.9956" fill="none" xmlns="http://www.w3.org/2000/svg" xmlns:xlink="http://www.w3.org/1999/xlink">
	<desc>
			Created with Pixso.
	</desc>
	<defs/>
	<path id="Vector" d="M7.31 14.06C7.78 12.45 8.66 10.98 9.85 9.79C11.04 8.6 12.51 7.73 14.13 7.26C15.75 6.79 17.45 6.74 19.1 7.11C20 5.69 21.25 4.53 22.72 3.72C24.19 2.92 25.84 2.5 27.52 2.5C29.2 2.5 30.85 2.92 32.33 3.72C33.8 4.53 35.04 5.69 35.95 7.11C37.59 6.74 39.31 6.79 40.92 7.26C42.54 7.73 44.02 8.6 45.21 9.79C46.41 10.99 47.28 12.46 47.75 14.08C48.22 15.7 48.27 17.41 47.9 19.06C49.31 19.96 50.48 21.21 51.28 22.68C52.09 24.15 52.51 25.8 52.51 27.48C52.51 29.16 52.09 30.81 51.28 32.29C50.48 33.76 49.31 35 47.9 35.91C48.27 37.55 48.21 39.26 47.75 40.88C47.28 42.5 46.41 43.97 45.22 45.16C44.03 46.35 42.56 47.22 40.94 47.7C39.33 48.17 37.62 48.22 35.97 47.86C35.07 49.28 33.82 50.45 32.35 51.26C30.87 52.07 29.22 52.49 27.53 52.49C25.85 52.49 24.2 52.07 22.72 51.26C21.25 50.45 20 49.28 19.1 47.86C17.45 48.23 15.75 48.17 14.13 47.71C12.51 47.24 11.04 46.37 9.85 45.18C8.66 43.99 7.78 42.52 7.31 40.9C6.84 39.29 6.78 37.58 7.15 35.93C5.72 35.03 4.55 33.78 3.74 32.31C2.92 30.83 2.5 29.17 2.5 27.48C2.5 25.8 2.92 24.14 3.74 22.66C4.55 21.18 5.72 19.93 7.15 19.03C6.78 17.39 6.84 15.68 7.31 14.06Z" stroke="#79BC5E" stroke-opacity="1.000000" stroke-width="5.000000" stroke-linejoin="round"/>
	<path id="Vector" d="M20.02 27.48L25.02 32.48L35.02 22.48" stroke="#79BC5E" stroke-opacity="1.000000" stroke-width="5.000000" stroke-linejoin="round" stroke-linecap="round"/>
</svg>
