<svg width="50.000000" height="50.000000" viewBox="0 0 50 50" fill="none" xmlns="http://www.w3.org/2000/svg" xmlns:xlink="http://www.w3.org/1999/xlink">
	<desc>
			Created with Pixso.
	</desc>
	<defs>
		<clipPath id="clip517_3608">
			<rect id="Icon / VK" rx="0.000000" width="49.000000" height="49.000000" transform="translate(0.500000 0.500000)" fill="white" fill-opacity="0"/>
		</clipPath>
	</defs>
	<rect id="Icon / VK" rx="0.000000" width="49.000000" height="49.000000" transform="translate(0.500000 0.500000)" fill="#FFFFFF" fill-opacity="0"/>
	<g clip-path="url(#clip517_3608)">
		<path id="Vector" d="M8.62 8.87C6 11.52 6 15.76 6 24.25L6 25.75C6 34.22 6 38.46 8.62 41.12C11.27 43.75 15.51 43.75 24 43.75L25.5 43.75C33.97 43.75 38.21 43.75 40.87 41.12C43.5 38.47 43.5 34.23 43.5 25.75L43.5 24.25C43.5 15.77 43.5 11.53 40.87 8.87C38.22 6.25 33.98 6.25 25.5 6.25L24 6.25C15.52 6.25 11.28 6.25 8.62 8.87ZM12.32 17.66L16.62 17.66C16.76 24.81 19.91 27.83 22.41 28.46L22.41 17.66L26.45 17.66L26.45 23.82C28.91 23.56 31.51 20.75 32.38 17.64L36.41 17.64C36.08 19.25 35.42 20.77 34.48 22.11C33.54 23.45 32.33 24.58 30.93 25.43C32.49 26.21 33.87 27.31 34.98 28.66C36.08 30.01 36.89 31.57 37.35 33.26L32.91 33.26C31.96 30.3 29.58 28 26.45 27.68L26.45 33.26L25.95 33.26C17.39 33.26 12.52 27.41 12.32 17.66Z" fill="#79BC5E" fill-opacity="1.000000" fill-rule="nonzero"/>
	</g>
</svg>
