<svg width="36.000000" height="36.000000" viewBox="0 0 36 36" fill="none" xmlns="http://www.w3.org/2000/svg" xmlns:xlink="http://www.w3.org/1999/xlink">
	<desc>
			Created with Pixso.
	</desc>
	<defs>
		<clipPath id="clip2_4706">
			<rect id="Icon / VK" rx="0.000000" width="35.000000" height="35.000000" transform="translate(0.500000 0.500000)" fill="white" fill-opacity="0"/>
		</clipPath>
	</defs>
	<rect id="Icon / VK" rx="0.000000" width="35.000000" height="35.000000" transform="translate(0.500000 0.500000)" fill="#FFFFFF" fill-opacity="0"/>
	<g clip-path="url(#clip2_4706)">
		<path id="Vector" d="M6.2 6.39C4.31 8.29 4.31 11.34 4.31 17.45L4.31 18.54C4.31 24.64 4.31 27.69 6.2 29.6C8.11 31.5 11.16 31.5 17.27 31.5L18.35 31.5C24.46 31.5 27.51 31.5 29.42 29.6C31.31 27.7 31.31 24.65 31.31 18.54L31.31 17.45C31.31 11.35 31.31 8.3 29.42 6.39C27.52 4.5 24.47 4.5 18.35 4.5L17.27 4.5C11.17 4.5 8.12 4.5 6.2 6.39ZM8.87 12.71L11.96 12.71C12.06 17.86 14.33 20.04 16.13 20.49L16.13 12.71L19.04 12.71L19.04 17.15C20.81 16.96 22.68 14.93 23.31 12.7L26.21 12.7C25.98 13.86 25.5 14.95 24.83 15.92C24.15 16.88 23.28 17.7 22.27 18.31C23.39 18.87 24.39 19.66 25.18 20.63C25.98 21.6 26.56 22.73 26.89 23.94L23.69 23.94C23.01 21.81 21.3 20.16 19.04 19.93L19.04 23.94L18.68 23.94C12.52 23.94 9.01 19.73 8.87 12.71Z" fill="#FEFEFE" fill-opacity="1.000000" fill-rule="nonzero"/>
	</g>
</svg>
