<svg width="36.000000" height="36.000000" viewBox="0 0 36 36" fill="none" xmlns="http://www.w3.org/2000/svg" xmlns:xlink="http://www.w3.org/1999/xlink">
	<desc>
			Created with Pixso.
	</desc>
	<defs>
		<clipPath id="clip2_4709">
			<rect id="Icon / WA" rx="0.000000" width="35.000000" height="35.000000" transform="translate(0.500000 0.500000)" fill="white" fill-opacity="0"/>
		</clipPath>
	</defs>
	<rect id="Icon / WA" rx="0.000000" width="35.000000" height="35.000000" transform="translate(0.500000 0.500000)" fill="#FFFFFF" fill-opacity="0"/>
	<g clip-path="url(#clip2_4709)">
		<path id="Vector" d="M31.66 10.54C31.65 9.95 31.6 9.36 31.52 8.78C31.42 8.26 31.26 7.76 31.02 7.29C30.52 6.29 29.71 5.48 28.71 4.97C28.24 4.74 27.74 4.57 27.22 4.48C26.64 4.39 26.05 4.35 25.46 4.33C25.21 4.32 24.88 4.32 24.73 4.32L11.26 4.31C11.11 4.31 10.79 4.32 10.54 4.33C9.95 4.34 9.36 4.39 8.78 4.47C8.26 4.57 7.76 4.73 7.29 4.97C6.29 5.47 5.48 6.28 4.97 7.28C4.74 7.75 4.57 8.25 4.48 8.77C4.39 9.35 4.34 9.94 4.33 10.53C4.32 10.78 4.32 11.11 4.32 11.26L4.31 24.73C4.31 24.88 4.32 25.21 4.33 25.46C4.34 26.04 4.39 26.63 4.47 27.21C4.57 27.73 4.73 28.23 4.97 28.7C5.47 29.7 6.28 30.51 7.28 31.02C7.75 31.25 8.25 31.42 8.77 31.51C9.35 31.6 9.94 31.65 10.53 31.66C10.78 31.67 11.11 31.67 11.26 31.67L24.73 31.67C24.88 31.67 25.2 31.67 25.45 31.66C26.04 31.65 26.63 31.6 27.21 31.52C27.73 31.42 28.23 31.26 28.7 31.02C29.7 30.52 30.51 29.71 31.02 28.71C31.25 28.24 31.42 27.74 31.51 27.22C31.6 26.64 31.65 26.05 31.66 25.46C31.67 25.21 31.67 24.88 31.67 24.73L31.67 11.26C31.67 11.11 31.67 10.79 31.66 10.54ZM18.29 27.51L18.29 27.51C16.66 27.51 15.06 27.11 13.63 26.33L8.46 27.68L9.84 22.63C8.77 20.77 8.34 18.61 8.62 16.48C8.9 14.35 9.88 12.37 11.4 10.86C12.92 9.34 14.89 8.37 17.02 8.09C19.15 7.81 21.31 8.24 23.17 9.31C25.03 10.39 26.48 12.04 27.3 14.03C28.12 16.01 28.27 18.21 27.71 20.29C27.16 22.36 25.93 24.19 24.23 25.5C22.53 26.8 20.44 27.51 18.29 27.51Z" fill="#FEFEFE" fill-opacity="1.000000" fill-rule="nonzero"/>
		<path id="Vector" d="M18.32 8.85C16.73 8.85 15.18 9.27 13.81 10.08C12.44 10.88 11.31 12.04 10.54 13.43C9.77 14.82 9.39 16.39 9.43 17.98C9.48 19.57 9.94 21.12 10.79 22.46L11 22.8L10.1 26.08L13.47 25.19L13.79 25.39C15.16 26.2 16.72 26.63 18.31 26.62L18.32 26.62C20.68 26.63 22.94 25.69 24.61 24.02C26.27 22.36 27.21 20.09 27.21 17.74C27.21 15.38 26.27 13.12 24.61 11.45C22.94 9.78 20.68 8.85 18.32 8.85L18.32 8.85ZM23.55 21.55C23.35 21.88 23.09 22.16 22.78 22.38C22.47 22.6 22.12 22.75 21.75 22.82C21.18 22.92 20.61 22.88 20.06 22.72C19.55 22.56 19.04 22.37 18.54 22.15C16.7 21.23 15.12 19.84 13.98 18.12C13.35 17.33 12.97 16.36 12.88 15.36C12.88 14.94 12.96 14.53 13.12 14.14C13.28 13.76 13.52 13.42 13.82 13.13C13.91 13.03 14.02 12.95 14.14 12.89C14.26 12.83 14.4 12.8 14.53 12.8C14.71 12.8 14.89 12.8 15.04 12.8C15.21 12.81 15.43 12.74 15.64 13.26C15.87 13.8 16.4 15.11 16.47 15.25C16.51 15.32 16.54 15.4 16.54 15.48C16.54 15.56 16.53 15.64 16.49 15.71C16.42 15.87 16.33 16.02 16.22 16.16C16.09 16.32 15.94 16.51 15.82 16.63C15.69 16.76 15.55 16.91 15.71 17.17C16.11 17.86 16.61 18.48 17.19 19.02C17.83 19.59 18.55 20.03 19.34 20.35C19.61 20.48 19.76 20.46 19.92 20.28C20.08 20.1 20.59 19.5 20.77 19.23C20.95 18.97 21.12 19.01 21.37 19.1C21.61 19.19 22.93 19.84 23.19 19.97C23.46 20.11 23.64 20.17 23.71 20.28C23.78 20.71 23.72 21.15 23.55 21.55Z" fill="#FEFEFE" fill-opacity="1.000000" fill-rule="nonzero"/>
	</g>
</svg>
