<svg width="50.000000" height="50.000000" viewBox="0 0 50 50" fill="none" xmlns="http://www.w3.org/2000/svg" xmlns:xlink="http://www.w3.org/1999/xlink">
	<desc>
			Created with Pixso.
	</desc>
	<defs>
		<clipPath id="clip517_3609">
			<rect id="Icon / WA" rx="0.000000" width="49.000000" height="49.000000" transform="translate(0.500000 0.500000)" fill="white" fill-opacity="0"/>
		</clipPath>
	</defs>
	<rect id="Icon / WA" rx="0.000000" width="49.000000" height="49.000000" transform="translate(0.500000 0.500000)" fill="#FFFFFF" fill-opacity="0"/>
	<g clip-path="url(#clip517_3609)">
		<path id="Vector" d="M43.98 14.63C43.96 13.82 43.89 13.01 43.78 12.2C43.64 11.48 43.41 10.78 43.09 10.13C42.39 8.74 41.26 7.61 39.87 6.91C39.22 6.59 38.53 6.36 37.81 6.22C37 6.1 36.18 6.04 35.36 6.02C35.01 6.01 34.56 6 34.35 6L15.64 6C15.43 6 14.98 6 14.63 6.01C13.82 6.03 13.01 6.1 12.2 6.21C11.48 6.35 10.78 6.58 10.13 6.9C8.74 7.6 7.61 8.73 6.91 10.12C6.59 10.77 6.36 11.46 6.22 12.18C6.1 12.99 6.04 13.81 6.02 14.63C6.01 14.98 6 15.43 6 15.64L6 34.35C6 34.56 6 35.01 6.01 35.36C6.03 36.17 6.1 36.99 6.21 37.79C6.35 38.51 6.58 39.21 6.9 39.86C7.6 41.25 8.73 42.38 10.12 43.08C10.77 43.4 11.46 43.64 12.18 43.77C12.99 43.89 13.81 43.95 14.63 43.97C14.98 43.99 15.43 43.99 15.64 43.99L34.35 44C34.56 44 35.01 43.99 35.36 43.98C36.17 43.96 36.98 43.89 37.79 43.78C38.51 43.64 39.21 43.41 39.86 43.09C41.25 42.39 42.38 41.26 43.08 39.87C43.4 39.22 43.64 38.53 43.77 37.81C43.89 37 43.96 36.18 43.97 35.36C43.99 35.01 43.99 34.56 43.99 34.35L44 15.64C44 15.43 43.99 14.98 43.98 14.63ZM25.41 38.22L25.4 38.22C23.14 38.22 20.91 37.65 18.93 36.57L11.75 38.45L13.67 31.43C12.18 28.85 11.59 25.85 11.98 22.89C12.37 19.93 13.72 17.19 15.83 15.08C17.94 12.97 20.69 11.62 23.64 11.23C26.6 10.85 29.6 11.45 32.18 12.94C34.77 14.43 36.78 16.73 37.92 19.49C39.06 22.24 39.26 25.3 38.49 28.18C37.72 31.06 36.02 33.6 33.65 35.42C31.29 37.23 28.39 38.21 25.41 38.22Z" fill="#79BC5E" fill-opacity="1.000000" fill-rule="nonzero"/>
		<path id="Vector" d="M25.45 12.29C23.24 12.29 21.08 12.88 19.18 14C17.28 15.12 15.71 16.73 14.64 18.66C13.58 20.59 13.04 22.77 13.1 24.98C13.16 27.18 13.81 29.33 14.99 31.2L15.28 31.66L14.03 36.22L18.7 34.99L19.15 35.26C21.06 36.39 23.23 36.98 25.44 36.98L25.44 36.98C28.72 36.98 31.86 35.68 34.18 33.37C36.49 31.05 37.79 27.91 37.79 24.64C37.79 21.36 36.49 18.22 34.18 15.91C31.86 13.59 28.72 12.29 25.45 12.29L25.45 12.29ZM32.71 29.94C32.44 30.39 32.07 30.78 31.64 31.08C31.21 31.38 30.72 31.6 30.21 31.7C29.42 31.83 28.62 31.78 27.87 31.55C27.15 31.33 26.44 31.07 25.75 30.77C23.19 29.48 21.01 27.55 19.41 25.17C18.54 24.06 18.02 22.73 17.9 21.33C17.89 20.75 18 20.18 18.22 19.65C18.45 19.12 18.78 18.63 19.2 18.24C19.32 18.1 19.47 17.98 19.64 17.9C19.81 17.82 20 17.78 20.19 17.77C20.43 17.77 20.68 17.77 20.9 17.79C21.13 17.8 21.43 17.7 21.73 18.42C22.04 19.16 22.78 20.99 22.88 21.18C22.93 21.27 22.97 21.38 22.97 21.5C22.98 21.61 22.96 21.72 22.91 21.83C22.81 22.05 22.69 22.26 22.54 22.45C22.35 22.66 22.15 22.93 21.98 23.1C21.79 23.28 21.6 23.48 21.82 23.85C22.37 24.81 23.07 25.67 23.88 26.42C24.76 27.2 25.77 27.83 26.87 28.26C27.24 28.45 27.45 28.42 27.67 28.17C27.89 27.92 28.6 27.09 28.84 26.72C29.09 26.35 29.34 26.41 29.68 26.53C30.02 26.65 31.84 27.55 32.22 27.74C32.59 27.93 32.83 28.02 32.93 28.17C33.03 28.77 32.95 29.38 32.71 29.94Z" fill="#79BC5E" fill-opacity="1.000000" fill-rule="nonzero"/>
	</g>
</svg>
